mtllib material.mtl
usemtl material_0
v -0.00137700 0.03187000 -0.02950000
v -0.00137700 0.03187000 -0.03300000
v 0.00137700 0.03187000 -0.02950000
v 0.00134300 0.03187200 -0.03300000
v -0.00121000 0.03187700 -0.03300000
v -0.00119900 0.03187700 -0.02950000
v 0.00121000 0.03187700 -0.02950000
v 0.00116500 0.03187900 -0.03300000
v -0.00104200 0.03188300 -0.03300000
v 0.00104200 0.03188300 -0.02950000
v -0.00102200 0.03188400 -0.02950000
v 0.00098800 0.03188500 -0.03300000
v -0.00087500 0.03188800 -0.03300000
v 0.00087500 0.03188800 -0.02950000
v -0.00084400 0.03188900 -0.02950000
v 0.00081000 0.03189000 -0.03300000
v -0.00028200 0.03189900 -0.03127600
v 0.00026200 0.03189900 -0.03125300
v -0.00002400 0.03190000 -0.03163000
v 0.00000700 0.03190000 -0.03089500
vn 0.71740000 0.56800000 -0.40330000
vn 0.71980000 0.56830000 0.39850000
vn -0.72000000 0.56820000 -0.39840000
vn -0.71790000 0.56760000 0.40280000
vn -0.02810000 0.70270000 0.71090000
vn -0.02780000 0.70370000 -0.70990000
vn 0.02810000 0.70260000 -0.71100000
vn 0.02630000 0.70320000 0.71040000
vn -0.02360000 0.70400000 0.70970000
vn 0.02360000 0.70390000 -0.70980000
vn -0.02470000 0.70320000 -0.71050000
vn 0.02240000 0.70420000 0.70960000
vn -0.39440000 0.60480000 0.69180000
vn 0.39410000 0.60480000 -0.69200000
vn -0.39680000 0.60460000 -0.69060000
vn 0.39710000 0.60440000 0.69060000
vn 0.52780000 0.84930000 -0.00360000
vn -0.52740000 0.84960000 0.00340000
vn 0.00060000 0.95330000 0.30190000
vn -0.00090000 0.95320000 -0.30230000
vt -0.07500000 -2.08929500
vt 0.27500000 -2.08929500
vt -0.07500000 -2.36478600
vt 0.27500000 -2.36137900
vt 0.27500000 -2.10604000
vt -0.07500000 -2.10708000
vt -0.07500000 -2.34804100
vt 0.27500000 -2.34359500
vt 0.27500000 -2.12278400
vt -0.07500000 -2.33129600
vt -0.07500000 -2.12486500
vt 0.27500000 -2.32581000
vt 0.27500000 -2.13952900
vt -0.07500000 -2.31455100
vt -0.07500000 -2.14265000
vt 0.27500000 -2.30802500
vt 0.10255300 -2.19881800
vt 0.10028400 -2.25327600
vt 0.13800600 -2.22462900
vt 0.06454600 -2.22774900
f 11/11/11 15/15/15 17/17/17
f 17/17/17 15/15/15 20/20/20
f 17/17/17 20/20/20 19/19/19
f 19/19/19 20/20/20 18/18/18
f 19/19/19 18/18/18 16/16/16
f 16/16/16 18/18/18 12/12/12
f 12/12/12 18/18/18 8/8/8
f 8/8/8 18/18/18 4/4/4
f 20/20/20 14/14/14 18/18/18
f 18/18/18 14/14/14 10/10/10
f 18/18/18 10/10/10 7/7/7
f 7/7/7 3/3/3 18/18/18
f 19/19/19 13/13/13 17/17/17
f 17/17/17 13/13/13 9/9/9
f 17/17/17 9/9/9 5/5/5
f 5/5/5 2/2/2 17/17/17
f 1/1/1 6/6/6 17/17/17
f 17/17/17 6/6/6 11/11/11

