mtllib material.mtl
usemtl material_0
v 0.05600000 0.07950000 0.05000000
v 0.05600000 0.07950000 0.15300000
v -0.05600000 0.07950000 0.05000000
v -0.05600000 0.07950000 0.15300000
v 0.00000000 0.07950000 0.20900000
v -0.00797000 0.07950000 0.20843000
v 0.05543000 0.07950000 0.16097000
v 0.05373200 0.07950000 0.16877700
v 0.05093900 0.07950000 0.17626300
v 0.04711000 0.07950000 0.18327600
v 0.04232200 0.07950000 0.18967200
v 0.03667200 0.07950000 0.19532200
v 0.03027600 0.07950000 0.20011000
v 0.02326300 0.07950000 0.20393900
v 0.01577700 0.07950000 0.20673200
v 0.00797000 0.07950000 0.20843000
v -0.01577700 0.07950000 0.20673200
v -0.02326300 0.07950000 0.20393900
v -0.03027600 0.07950000 0.20011000
v -0.03667200 0.07950000 0.19532200
v -0.04232200 0.07950000 0.18967200
v -0.04711000 0.07950000 0.18327600
v -0.05093900 0.07950000 0.17626300
v -0.05373200 0.07950000 0.16877700
v -0.05543000 0.07950000 0.16097000
vn 0.00000000 -1.00000000 0.00000000
vn 0.00000000 -1.00000000 0.00000000
vn 0.00000000 -1.00000000 0.00000000
vn 0.00000000 -1.00000000 0.00000000
vn 0.00000000 -1.00000000 0.00000000
vn 0.00000000 -1.00000000 0.00000000
vn 0.00000000 -1.00000000 0.00000000
vn 0.00000000 -1.00000000 0.00000000
vn 0.00000000 -1.00000000 0.00000000
vn 0.00000000 -1.00000000 0.00000000
vn 0.00000000 -1.00000000 0.00000000
vn 0.00000000 -1.00000000 0.00000000
vn 0.00000000 -1.00000000 0.00000000
vn 0.00000000 -1.00000000 0.00000000
vn 0.00000000 -1.00000000 0.00000000
vn 0.00000000 -1.00000000 0.00000000
vn 0.00000000 -1.00000000 0.00000000
vn 0.00000000 -1.00000000 0.00000000
vn 0.00000000 -1.00000000 0.00000000
vn 0.00000000 -1.00000000 0.00000000
vn 0.00000000 -1.00000000 0.00000000
vn 0.00000000 -1.00000000 0.00000000
vn 0.00000000 -1.00000000 0.00000000
vn 0.00000000 -1.00000000 0.00000000
vn 0.00000000 -1.00000000 0.00000000
vt 7.30000000 5.60000000
vt -3.00000000 5.60000000
vt 7.30000000 -5.60000000
vt -3.00000000 -5.60000000
vt -8.60000100 0.00000000
vt -8.54300100 -0.79696300
vt -3.79696300 5.54300000
vt -4.57770300 5.37316100
vt -5.32632400 5.09393900
vt -6.02758900 4.71102000
vt -6.66722100 4.23219800
vt -7.23219800 3.66722000
vt -7.71102000 3.02758900
vt -8.09394000 2.32632400
vt -8.37316100 1.57770200
vt -8.54300100 0.79696300
vt -8.37316100 -1.57770200
vt -8.09394000 -2.32632400
vt -7.71102000 -3.02758900
vt -7.23219800 -3.66722000
vt -6.66722100 -4.23219800
vt -6.02758900 -4.71102000
vt -5.32632400 -5.09393900
vt -4.57770300 -5.37316100
vt -3.79696300 -5.54300000
f 1/1/1 2/2/2 3/3/3
f 3/3/3 2/2/2 4/4/4
f 4/4/4 2/2/2 5/5/5
f 4/4/4 5/5/5 6/6/6
f 7/7/7 8/8/8 2/2/2
f 2/2/2 8/8/8 9/9/9
f 2/2/2 9/9/9 10/10/10
f 10/10/10 11/11/11 2/2/2
f 2/2/2 11/11/11 12/12/12
f 2/2/2 12/12/12 13/13/13
f 13/13/13 14/14/14 2/2/2
f 2/2/2 14/14/14 15/15/15
f 2/2/2 15/15/15 16/16/16
f 16/16/16 5/5/5 2/2/2
f 6/6/6 17/17/17 4/4/4
f 4/4/4 17/17/17 18/18/18
f 4/4/4 18/18/18 19/19/19
f 19/19/19 20/20/20 4/4/4
f 4/4/4 20/20/20 21/21/21
f 4/4/4 21/21/21 22/22/22
f 22/22/22 23/23/23 4/4/4
f 4/4/4 23/23/23 24/24/24
f 4/4/4 24/24/24 25/25/25

